<svg width="25" height="25" viewBox="0 0 25 25" fill="none" xmlns="http://www.w3.org/2000/svg">
<mask id="mask0_6_7" style="mask-type:alpha" maskUnits="userSpaceOnUse" x="0" y="0" width="25" height="25">
<rect x="0.736816" y="0.421143" width="24" height="24" fill="#D9D9D9"/>
</mask>
<g mask="url(#mask0_6_7)">
<path d="M1.73682 23.4211L3.68682 16.7211C3.37015 16.0378 3.13265 15.3378 2.97432 14.6211C2.81598 13.9045 2.73682 13.1711 2.73682 12.4211C2.73682 11.0378 2.99932 9.73781 3.52432 8.52114C4.04932 7.30448 4.76182 6.24614 5.66182 5.34614C6.56182 4.44614 7.62015 3.73364 8.83682 3.20864C10.0535 2.68364 11.3535 2.42114 12.7368 2.42114C14.1201 2.42114 15.4202 2.68364 16.6368 3.20864C17.8535 3.73364 18.9118 4.44614 19.8118 5.34614C20.7118 6.24614 21.4243 7.30448 21.9493 8.52114C22.4743 9.73781 22.7368 11.0378 22.7368 12.4211C22.7368 13.8045 22.4743 15.1045 21.9493 16.3211C21.4243 17.5378 20.7118 18.5961 19.8118 19.4961C18.9118 20.3961 17.8535 21.1086 16.6368 21.6336C15.4202 22.1586 14.1201 22.4211 12.7368 22.4211C11.9868 22.4211 11.2535 22.342 10.5368 22.1836C9.82015 22.0253 9.12015 21.7878 8.43682 21.4711L1.73682 23.4211ZM4.68682 20.4711L7.88682 19.5211C8.12015 19.4545 8.35765 19.4295 8.59932 19.4461C8.84098 19.4628 9.07015 19.5211 9.28682 19.6211C9.82015 19.8878 10.3785 20.0878 10.9618 20.2211C11.5452 20.3545 12.1368 20.4211 12.7368 20.4211C14.9701 20.4211 16.8618 19.6461 18.4118 18.0961C19.9618 16.5461 20.7368 14.6545 20.7368 12.4211C20.7368 10.1878 19.9618 8.29614 18.4118 6.74614C16.8618 5.19614 14.9701 4.42114 12.7368 4.42114C10.5035 4.42114 8.61182 5.19614 7.06182 6.74614C5.51182 8.29614 4.73682 10.1878 4.73682 12.4211C4.73682 13.0211 4.80348 13.6128 4.93682 14.1961C5.07015 14.7795 5.27015 15.3378 5.53682 15.8711C5.65348 16.0878 5.71598 16.317 5.72432 16.5586C5.73265 16.8003 5.70348 17.0378 5.63682 17.2711L4.68682 20.4711ZM11.7368 16.4211H13.7368V13.4211H16.7368V11.4211H13.7368V8.42114H11.7368V11.4211H8.73682V13.4211H11.7368V16.4211Z" fill="#1C1B1F"/>
</g>
</svg>
