<svg width="42" height="52" viewBox="0 0 42 52" fill="none" xmlns="http://www.w3.org/2000/svg">
<path d="M22.0426 0.00256348C11.5727 0.00256348 3.08522 8.42211 3.08522 18.8081C3.08522 29.1942 22.0426 52 22.0426 52C22.0426 52 41 29.1942 41 18.8081C41 8.42211 32.5125 0.00256348 22.0426 0.00256348Z" fill="url(#paint0_radial_126_331)"/>
<circle cx="21.4971" cy="19.4996" r="14.0826" fill="white"/>
<path d="M17.9704 8.52965C17.9372 8.58601 17.9455 8.65847 17.9953 8.70677C18.1115 8.81948 18.3688 8.72287 18.3273 8.58601C18.2775 8.4572 18.0451 8.41694 17.9704 8.52965Z" fill="#3B3228"/>
<path d="M22.6269 8.56992C22.5771 8.70678 22.768 8.8195 22.9091 8.73094C22.9506 8.70678 22.9921 8.62628 22.9921 8.56187C22.9921 8.4089 22.6933 8.41695 22.6269 8.56992Z" fill="#3B3228"/>
<path d="M15.0237 9.26228C15.0237 9.46356 15.2976 9.4394 15.3391 9.23008C15.3557 9.13347 15.3142 9.09322 15.198 9.09322C15.0735 9.09322 15.0237 9.14152 15.0237 9.26228Z" fill="#3B3228"/>
<path d="M25.6233 9.1496C25.5984 9.18986 25.6067 9.27037 25.6482 9.32672C25.7312 9.46359 26.0051 9.37503 25.9636 9.23011C25.9138 9.10935 25.6814 9.05299 25.6233 9.1496Z" fill="#3B3228"/>
<path d="M19.3814 9.33477C19.3067 9.44748 19.4644 9.69706 20.087 10.4619C20.7261 11.2509 20.7925 11.3475 20.6763 11.3475C20.6348 11.3475 20.2696 11.0335 19.8628 10.639C19.1407 9.94663 18.3439 9.33477 18.3439 9.47163C18.3439 9.53604 18.7091 10.0271 19.2569 10.7195C19.5059 11.0254 19.398 11.0013 18.6759 10.5827C17.7711 10.0513 17.7711 10.0674 18.4435 10.961C18.6759 11.2589 18.8419 11.5488 18.8253 11.6051C18.8087 11.6534 18.5348 11.4602 18.2111 11.1784C17.3561 10.3975 16.4016 9.73731 16.2937 9.84197C16.2688 9.86613 16.6174 10.2526 17.0573 10.6954C17.5055 11.1462 17.8293 11.5085 17.7711 11.5085C17.7213 11.5085 17.2233 11.2509 16.6672 10.9449C16.1111 10.631 15.6213 10.3814 15.5715 10.3814C15.5217 10.3814 15.721 10.6149 16.0198 10.9047C16.3103 11.1865 16.5261 11.4441 16.5012 11.4763C16.468 11.5004 16.2771 11.4441 16.0613 11.3555C15.8538 11.267 15.5383 11.1704 15.3723 11.1382L15.0652 11.0818L15.4387 11.3636C15.6462 11.5165 16.053 11.7822 16.3518 11.9513C16.9743 12.3136 16.8581 12.4424 16.2024 12.1204C15.447 11.75 14.1273 11.2026 13.8451 11.1462L13.5711 11.0899L13.7621 11.2911C13.87 11.4038 14.2684 11.6615 14.6585 11.8708C15.0403 12.0801 15.3557 12.2814 15.3557 12.3216C15.3557 12.4102 15.4055 12.4182 14.7747 12.2331C14.1024 12.0318 13.1063 11.8144 13.0565 11.8627C12.9735 11.9432 13.1478 12.0882 13.621 12.3216C13.8949 12.4504 14.0941 12.5954 14.0692 12.6356C14.0443 12.6759 13.7206 12.692 13.3387 12.6678C12.9569 12.6356 12.5668 12.6517 12.4506 12.7C12.2431 12.7805 12.2431 12.7805 12.5751 12.9174C12.7577 12.9979 13.2142 13.1106 13.5877 13.175C13.9696 13.2475 14.2767 13.328 14.2767 13.3682C14.2767 13.4085 13.9862 13.4407 13.6293 13.4407C12.9735 13.4407 12.1933 13.5454 11.8032 13.6903C11.4545 13.8191 11.7368 13.9238 12.4506 13.9238C13.1478 13.9318 13.098 14.0284 12.3676 14.117C11.9111 14.1733 11.2055 14.431 11.2055 14.5356C11.2055 14.5678 11.5044 14.5678 11.8779 14.5437C12.2846 14.5195 12.5336 14.5356 12.517 14.5759C12.5004 14.6242 12.1186 14.7852 11.6621 14.9382C11.2055 15.0911 10.7075 15.2602 10.5664 15.3085C10.2095 15.4293 10.2095 15.55 10.5664 15.5017C10.7075 15.4776 11.0395 15.4373 11.2885 15.4132L11.7451 15.3649L11.33 15.6305C10.0269 16.4356 9.77787 16.6127 9.86917 16.6449C9.92728 16.661 10.3257 16.6127 10.7573 16.5403C11.1972 16.4678 11.5708 16.4276 11.5957 16.4517C11.6206 16.4759 11.5376 16.5805 11.4047 16.6771C10.9067 17.0555 9.71147 18.1263 9.63676 18.2632C9.59526 18.3356 9.58696 18.4483 9.62846 18.5127C9.68656 18.6013 9.78617 18.6013 10.2344 18.4805C11.1225 18.2471 11.1308 18.3276 10.2925 18.9877C9.87747 19.3098 9.55376 19.6238 9.57036 19.6721C9.58696 19.7204 9.73637 19.7687 9.90237 19.7848C10.2759 19.817 10.2842 19.9055 9.96048 20.2034C9.67826 20.461 9.64506 20.7026 9.86087 20.9119C9.99368 21.0407 10.0269 21.25 10.0684 22.2644C10.1348 23.6653 10.168 23.7941 10.4004 23.8585C10.6826 23.931 29.1593 23.9149 29.2838 23.8424C29.3917 23.7699 28.6281 23.3271 27.3913 22.7394L26.7688 22.4415L27.1838 22.8521C27.5407 23.2144 27.5739 23.2627 27.4079 23.2627C27.3 23.2627 26.9763 23.0856 26.6775 22.8602C25.8474 22.2483 25.7395 22.2242 26.1877 22.7475C26.5281 23.15 26.5613 23.2305 26.4285 23.2547C26.3206 23.2708 26.0715 23.0776 25.6316 22.6267C25.2747 22.2644 24.9842 21.9988 24.9842 22.039C24.9842 22.0712 25.0755 22.3369 25.1917 22.6187C25.4407 23.2386 25.4407 23.2627 25.2415 23.2627C25.1253 23.2627 24.9842 23.0695 24.6937 22.5221L24.3119 21.7733L24.3617 22.2966C24.3949 22.5865 24.4364 22.9165 24.4613 23.0373C24.5028 23.2225 24.4779 23.2627 24.3368 23.2627C24.204 23.2627 24.1459 23.15 24.0047 22.5945C23.7059 21.4432 23.681 21.4352 23.6146 22.3932C23.5565 23.2386 23.5482 23.2627 23.3573 23.2627C23.1664 23.2627 23.1664 23.2466 23.1415 22.4415L23.1166 21.6204L22.8261 22.4254C22.5937 23.0615 22.5024 23.2305 22.3613 23.2466L22.187 23.2708L22.3364 22.6026C22.4194 22.2322 22.4941 21.878 22.4941 21.8136C22.4941 21.7492 22.3032 21.9988 22.0791 22.3691C21.6391 23.1098 21.4565 23.3271 21.3569 23.2386C21.2988 23.1822 21.3735 22.9649 21.7387 22.0712C21.83 21.8458 21.8964 21.6526 21.8715 21.6526C21.8549 21.6526 21.5478 22.0149 21.1992 22.4577C20.7095 23.0695 20.5103 23.2627 20.3692 23.2627C20.2613 23.2627 20.17 23.2466 20.17 23.2144C20.17 23.1903 20.3858 22.8924 20.6431 22.5543C20.9004 22.2161 21.0581 21.9746 20.9917 22.0229C20.0704 22.7233 19.2818 23.2627 19.1822 23.2627C18.9996 23.2627 19.3897 22.8924 20.5435 21.9504C21.7968 20.936 21.8798 20.8475 21.3735 21.1293C20.7427 21.4674 19.5391 22.2644 18.8502 22.7958C18.2858 23.2305 18.0119 23.3593 18.0119 23.1983C18.0119 23.1581 18.1115 23.0454 18.2277 22.9327C18.3439 22.828 18.6344 22.5221 18.8751 22.2644C19.2735 21.8136 19.2818 21.7894 19.0245 21.9424C18.8668 22.0229 18.3854 22.361 17.9455 22.675C17.5055 22.9971 17.0905 23.2627 17.0241 23.2627C16.6423 23.2627 18.4933 21.9343 19.921 21.1776C21.5312 20.3322 22.5024 19.7848 22.4692 19.7445C22.3945 19.6801 20.3858 20.4932 19.4312 20.9763C18.8668 21.2661 18.3854 21.4754 18.3605 21.4513C18.2609 21.3547 19.1075 20.8475 20.917 19.9377C22.4858 19.1488 23.5731 18.5691 23.4071 18.6174C22.2368 18.9636 21.2324 19.3178 20.4024 19.6721C19.8462 19.9136 19.3648 20.0907 19.3399 20.0746C19.2486 19.978 19.8047 19.6882 21.664 18.8348C22.7348 18.3437 23.7059 17.8928 23.8221 17.8284C24.4281 17.4903 22.7846 17.9331 21.3984 18.4725C20.8838 18.6738 20.4356 18.8348 20.3941 18.8348C20.1617 18.8348 20.6099 18.5771 21.8964 17.9814C22.6933 17.611 23.3324 17.281 23.2992 17.2568C23.2743 17.2327 22.8178 17.3454 22.2866 17.5064C20.751 17.9733 20.834 17.7721 22.4609 17.1038C22.9589 16.9026 23.515 16.6691 23.6976 16.5805C24.0213 16.4195 24.0213 16.4195 23.7723 16.4517C22.8759 16.5886 22.6186 16.5966 22.7099 16.5C22.8095 16.4034 24.1625 15.9365 24.3534 15.9365C24.4198 15.9365 24.4862 16.0733 24.5194 16.2746C24.5858 16.7013 24.868 17.2004 25.1751 17.4178C25.3826 17.5627 25.4158 17.5708 25.532 17.45C25.6565 17.3293 25.6565 17.3051 25.4822 17.1682C24.9676 16.7577 24.7601 15.7513 25.0506 15.1072C25.4656 14.2055 26.6443 14.1492 27.0178 15.0187C27.1423 15.3165 27.2336 15.3568 27.3913 15.1716C27.6071 14.914 27.2253 14.286 26.6692 14.0123C26.4036 13.8835 25.7561 13.9077 25.4241 14.0606C25.0921 14.2136 24.6854 14.7047 24.6107 15.0589C24.5692 15.2199 24.5028 15.2924 24.3866 15.2924C24.2372 15.2924 24.2206 15.2602 24.2621 15.0026C24.3451 14.5115 24.702 14.0284 25.1751 13.7547C25.5569 13.5373 25.6648 13.5132 26.1545 13.5373C26.8601 13.5695 27.2751 13.8271 27.7399 14.5115L28.0719 15.0106L28.0304 14.5034C28.0055 14.2297 28.0138 14.0043 28.047 14.0043C28.0802 14.0043 28.2213 14.2699 28.3708 14.5839L28.6447 15.1716L28.6032 14.1009C28.5866 13.5051 28.5866 13.0462 28.6198 13.0784C28.6447 13.1026 28.7858 13.6017 28.9352 14.1814C29.2257 15.381 29.3004 15.3568 29.3004 14.0606C29.3004 13.6339 29.3336 13.2797 29.3668 13.2797C29.4083 13.2797 29.5245 13.7788 29.6324 14.3827C29.8399 15.55 29.9395 15.6305 29.9644 14.6483C29.9727 14.3585 30.0059 13.9801 30.0391 13.803L30.1055 13.481L30.1553 13.7627C30.1802 13.9157 30.2632 14.4068 30.3379 14.8496C30.4127 15.2924 30.4791 15.6627 30.4957 15.6708C30.504 15.6869 30.5621 15.3488 30.6202 14.9301C30.6866 14.5115 30.7613 14.1653 30.7945 14.1653C30.8277 14.1653 30.8858 14.5356 30.9107 14.9865C31.0352 16.7174 31.3506 18.3839 31.7739 19.5191C32.1723 20.606 32.164 20.9843 31.7075 21.2098C31.5083 21.3144 31.334 21.3064 30.2881 21.1695C29.6324 21.081 28.9435 20.9682 28.7609 20.9119L28.4289 20.8153L29.0099 20.7348L29.5909 20.6462L28.4289 20.5013C27.7897 20.4288 27.134 20.3644 26.9763 20.3725L26.6858 20.3805L26.9763 20.461C27.134 20.5093 27.4162 20.5899 27.5988 20.6462L27.9308 20.7509L27.4328 20.767C27.1589 20.775 26.7522 20.8072 26.5198 20.8394L26.1047 20.8958L26.6443 20.9521C26.9431 20.9843 27.3913 21.0327 27.6403 21.0649C28.2545 21.1293 27.9889 21.2098 26.9348 21.2822C26.4783 21.3144 25.9719 21.3627 25.8142 21.3949C25.532 21.4432 25.5403 21.4513 25.9802 21.4996C26.2293 21.5318 27.1672 21.564 28.0553 21.564C28.9435 21.5721 30.1802 21.6284 30.7945 21.6928C32.9028 21.9263 32.9775 21.9263 33.268 21.7814C33.7577 21.5318 33.9569 20.9521 33.7079 20.4932C33.5502 20.2195 33.0854 20.0182 32.7451 20.0746L32.4711 20.1229L32.2553 19.5593C31.9814 18.8267 31.749 17.9331 31.5913 16.9831C31.4668 16.2746 31.2925 14.0284 31.2925 13.2153C31.2925 13.0301 31.2593 12.8771 31.2178 12.8771C31.1763 12.8771 31.0186 13.0704 30.8692 13.2958L30.587 13.7225L30.5704 13.2797C30.5538 13.0382 30.5206 12.6759 30.4957 12.4746L30.4459 12.1123L30.2051 12.5712C30.0723 12.8288 29.9478 13.0382 29.9312 13.0382C29.9146 13.0382 29.8482 12.7081 29.7901 12.3136C29.7403 11.911 29.6656 11.589 29.6324 11.589C29.5992 11.589 29.4996 11.8225 29.4249 12.1123C29.3419 12.4021 29.2423 12.6356 29.2091 12.6356C29.1676 12.6356 29.1095 12.4988 29.0597 12.3297C28.6779 10.8322 28.6779 10.8403 28.6281 11.0335C28.5949 11.1382 28.5617 11.4441 28.5617 11.7098C28.5534 11.9754 28.5202 12.2492 28.4704 12.3136C28.3791 12.4504 28.4289 12.5551 27.964 11.1462L27.6154 10.0996L27.4577 10.7678C27.3664 11.1382 27.2585 11.4119 27.2253 11.3716C27.1838 11.3394 27.0261 11.0013 26.8684 10.631L26.5779 9.94663L26.5281 10.4699C26.5032 10.7517 26.47 11.1623 26.4534 11.3877L26.4368 11.7903L26.1877 11.1865L25.9387 10.5827L25.8972 10.8966L25.8557 11.2106L25.2 10.2365C24.8348 9.69706 24.5111 9.25426 24.4779 9.25426C24.3783 9.25426 24.6688 10.011 25.0174 10.6873C25.1834 11.0174 25.3079 11.3233 25.2913 11.3716C25.2747 11.4199 25.0008 11.114 24.6771 10.6954C23.5897 9.29452 23.4901 9.23816 23.8221 10.1882C23.9134 10.4458 23.9798 10.7115 23.9715 10.7759C23.9549 10.8403 23.681 10.5827 23.3324 10.1882C23.0004 9.80172 22.7099 9.50384 22.6933 9.51994C22.6601 9.55214 23.1581 10.8081 23.3324 11.114C23.3822 11.2187 23.3822 11.267 23.3324 11.267C23.2826 11.267 23.0004 10.9369 22.6933 10.5424C22.3945 10.1399 22.1289 9.81782 22.104 9.81782C22.0791 9.81782 22.0791 10.003 22.0957 10.2204C22.1538 10.7598 22.0376 10.7115 21.6474 10.0191L21.3403 9.46358L21.3154 9.89833L21.2905 10.3411L21.0166 10.0754C20.8589 9.93858 20.7261 9.81782 20.7012 9.81782C20.6846 9.81782 20.668 9.90638 20.668 10.0191C20.668 10.1318 20.6348 10.2204 20.6016 10.2204C20.5684 10.2204 20.3526 10.0352 20.1285 9.80977C19.6553 9.34282 19.4561 9.21401 19.3814 9.33477ZM33.3178 20.9521C33.2514 21.1212 33.0937 21.1293 32.9609 20.9763C32.8862 20.8877 32.8945 20.8314 33.0024 20.7267C33.1186 20.614 33.1601 20.614 33.2597 20.7106C33.3178 20.767 33.351 20.8797 33.3178 20.9521Z" fill="#3B3228"/>
<path d="M29.2174 10.3813C29.2174 10.486 29.2755 10.5424 29.3834 10.5424C29.4913 10.5424 29.5494 10.486 29.5494 10.3813C29.5494 10.2767 29.4913 10.2203 29.3834 10.2203C29.2755 10.2203 29.2174 10.2767 29.2174 10.3813Z" fill="#3B3228"/>
<path d="M11.9941 10.8644C11.9277 10.9771 12.019 11.106 12.1684 11.106C12.2348 11.106 12.2846 11.0335 12.2846 10.9449C12.2846 10.7759 12.0854 10.7195 11.9941 10.8644Z" fill="#3B3228"/>
<path d="M9.97707 13.9801C9.99368 14.0606 10.0601 14.125 10.1265 14.125C10.1929 14.125 10.2593 14.0606 10.2759 13.9801C10.2925 13.8835 10.251 13.8432 10.1265 13.8432C10.002 13.8432 9.96047 13.8835 9.97707 13.9801Z" fill="#3B3228"/>
<path d="M8.92292 16.2585C8.85652 16.3631 8.94782 16.5 9.08893 16.5C9.20514 16.5 9.31304 16.3068 9.23834 16.2263C9.15533 16.1538 8.98102 16.1699 8.92292 16.2585Z" fill="#3B3228"/>
<path d="M32.7866 16.339C32.7866 16.4598 32.8281 16.5 32.936 16.4839C33.0107 16.4678 33.0771 16.4034 33.0771 16.339C33.0771 16.2746 33.0107 16.2102 32.936 16.1941C32.8281 16.178 32.7866 16.2182 32.7866 16.339Z" fill="#3B3228"/>
<path d="M28.1217 17.6513C27.6818 18.0136 27.5988 18.4725 27.9142 18.9233C28.1798 19.3017 28.6779 19.4627 29.068 19.2856C29.6739 19.0038 29.8233 18.2471 29.3751 17.7479C29.151 17.4983 29.068 17.4661 28.7277 17.4661C28.4537 17.4661 28.2877 17.5144 28.1217 17.6513ZM29.2755 17.9975C29.3419 18.1585 29.2091 18.3839 29.0265 18.4161C28.8439 18.4564 28.6779 18.1344 28.8107 17.9814C28.9435 17.8284 29.2091 17.8365 29.2755 17.9975Z" fill="#3B3228"/>
<path d="M27.4328 19.4386C27.6403 19.5996 28.1051 19.7204 28.4703 19.7123C28.6945 19.7123 28.6032 19.664 28.0553 19.5111C27.2336 19.2856 27.217 19.2856 27.4328 19.4386Z" fill="#3B3228"/>
<path d="M27.3913 20.0102C27.6901 20.1471 28.8937 20.2759 28.7858 20.1632C28.7028 20.0827 27.6818 19.8894 27.3498 19.8894H27.1008L27.3913 20.0102Z" fill="#3B3228"/>
<path d="M8.93952 21.7814C8.82331 21.9021 8.88972 22.0551 9.05572 22.0551C9.17193 22.0551 9.21343 22.0149 9.19683 21.9183C9.17193 21.7733 9.03082 21.7009 8.93952 21.7814Z" fill="#3B3228"/>
<path d="M26.8518 21.9665C26.387 22.0148 26.3787 22.0229 26.636 22.0712C26.9929 22.1517 29.234 22.1436 29.6739 22.0631C30.4126 21.9343 28.0885 21.8538 26.8518 21.9665Z" fill="#3B3228"/>
<path d="M28.3043 22.7394C28.462 22.7958 28.7111 22.8441 28.8439 22.8441C29.0182 22.8441 28.9601 22.8119 28.6364 22.7394C28.0636 22.5945 27.9308 22.6025 28.3043 22.7394Z" fill="#3B3228"/>
<path d="M7.51185 23.5043C7.54506 23.5526 8.00988 23.5848 8.64071 23.5848C9.29644 23.5848 9.71146 23.5526 9.71146 23.5043C9.71146 23.456 9.27984 23.4238 8.58261 23.4238C7.86047 23.4238 7.47865 23.456 7.51185 23.5043Z" fill="#3B3228"/>
<path d="M29.8399 23.5043C29.9063 23.617 34.0067 23.617 34.0731 23.5043C34.1063 23.4479 33.3842 23.4238 31.9565 23.4238C30.5288 23.4238 29.8067 23.4479 29.8399 23.5043Z" fill="#3B3228"/>
<path d="M13.5296 24.7118C13.5296 24.7682 15.9783 24.7924 20.7095 24.7924C25.4407 24.7924 27.8893 24.7682 27.8893 24.7118C27.8893 24.6555 25.4407 24.6313 20.7095 24.6313C15.9783 24.6313 13.5296 24.6555 13.5296 24.7118Z" fill="#3B3228"/>
<path d="M17.3561 25.4687C17.2399 25.6055 17.298 25.7585 17.4723 25.7585C17.6549 25.7585 17.713 25.5975 17.5802 25.4687C17.4723 25.364 17.4474 25.364 17.3561 25.4687Z" fill="#3B3228"/>
<path d="M24.5194 25.4687C24.4613 25.6216 24.5443 25.7585 24.702 25.7585C24.785 25.7585 24.8182 25.6941 24.8016 25.5814C24.7684 25.372 24.5858 25.2915 24.5194 25.4687Z" fill="#3B3228"/>
<defs>
<radialGradient id="paint0_radial_126_331" cx="0" cy="0" r="1" gradientUnits="userSpaceOnUse" gradientTransform="translate(22.0426 26.0013) rotate(89.1364) scale(89.1517 65.0195)">
<stop stop-color="#FFCD1C"/>
<stop offset="0.33588" stop-color="#FEBE1B"/>
<stop offset="1" stop-color="#FCA018"/>
</radialGradient>
</defs>
</svg>
