<svg width="25" height="25" viewBox="0 0 25 25" fill="none" xmlns="http://www.w3.org/2000/svg">
<mask id="mask0_7_13" style="mask-type:alpha" maskUnits="userSpaceOnUse" x="0" y="0" width="25" height="25">
<rect x="0.181885" y="0.256592" width="24" height="24" fill="#D9D9D9"/>
</mask>
<g mask="url(#mask0_7_13)">
<path d="M9.43184 22.2566L9.03184 19.0566C8.81517 18.9733 8.611 18.8733 8.41934 18.7566C8.22767 18.6399 8.04017 18.5149 7.85684 18.3816L4.88184 19.6316L2.13184 14.8816L4.70684 12.9316C4.69017 12.8149 4.68184 12.7024 4.68184 12.5941V11.9191C4.68184 11.8108 4.69017 11.6983 4.70684 11.5816L2.13184 9.63159L4.88184 4.88159L7.85684 6.13159C8.04017 5.99826 8.23184 5.87326 8.43184 5.75659C8.63184 5.63993 8.83184 5.53993 9.03184 5.45659L9.43184 2.25659H14.9318L15.3318 5.45659C15.5485 5.53993 15.7527 5.63993 15.9443 5.75659C16.136 5.87326 16.3235 5.99826 16.5068 6.13159L19.4818 4.88159L22.2318 9.63159L19.6568 11.5816C19.6735 11.6983 19.6818 11.8108 19.6818 11.9191V12.5941C19.6818 12.7024 19.6652 12.8149 19.6318 12.9316L22.2068 14.8816L19.4568 19.6316L16.5068 18.3816C16.3235 18.5149 16.1318 18.6399 15.9318 18.7566C15.7318 18.8733 15.5318 18.9733 15.3318 19.0566L14.9318 22.2566H9.43184ZM12.2318 15.7566C13.1985 15.7566 14.0235 15.4149 14.7068 14.7316C15.3902 14.0483 15.7318 13.2233 15.7318 12.2566C15.7318 11.2899 15.3902 10.4649 14.7068 9.78159C14.0235 9.09826 13.1985 8.75659 12.2318 8.75659C11.2485 8.75659 10.4193 9.09826 9.74434 9.78159C9.06934 10.4649 8.73184 11.2899 8.73184 12.2566C8.73184 13.2233 9.06934 14.0483 9.74434 14.7316C10.4193 15.4149 11.2485 15.7566 12.2318 15.7566Z" fill="white"/>
</g>
</svg>
